# xmcd CD database file
# 
# Track frame offsets:
# 	150
# 	12389
# 	26605
# 	36823
# 	51950
# 	63478
# 	77510
# 	87815
# 	100640
# 	113658
# 	124868
# 	138553
# 	153888
# 	171615
# 	183475
# 	198683
# 	212165
# 	227433
# 	238475
# 	246788
# 
# Disc length: 3444 seconds
# 
# Submitted via: Nero 6, 0, 0, 28
# 
# Revision: 0
# Processed by: cddbd v1.4PL0 Copyright (c) Steve Scherf et al.
#
DISCID=140d7214
DTITLE=Various Artist - Country Roads Vol 5
DYEAR=1900
DGENRE=
TTITLE0=Crystal Gayle - Don't It Make My Brown Eyes Blue
TTITLE1=Conway Twitty - You've Never been This Far Before
TTITLE2=Roger Miller - Engine Engine #9
TTITLE3=Kenny Rogers - Just Dropped In (To See What Condition My Condition Was 
TTITLE3=In)
TTITLE4=Lynn Anderson - Listen To A Country Song
TTITLE5=Michael Johnson - Bluer Than Blue
TTITLE6=Loretta Lynn - You're Looking At Country
TTITLE7=Johnny Cash - Folsom Prison Blues
TTITLE8=Johnny Paycheck - Take This Job And Shove It
TTITLE9=Boxcar Willie - In The Jailhouse Now
TTITLE10=Porter Wagoner - Green Green Grass Of Home
TTITLE11=Gina Jeffreys - Up Close Personal Attention
TTITLE12=The Gatlin Brothers - Love Is Just A Game
TTITLE13=Stonewall Jackson - Waterloo
TTITLE14=Billie Jo Spears - Blanket On The Ground
TTITLE15=Freddy Weller - The Perfect Stranger
TTITLE16=Cal Smith - I've Found Somone Of My Own
TTITLE17=Jerry Wallace - Primrose Lane
TTITLE18=Slim Whitman - Have You Ever been Lonely, Have You Ever Been Blue
TTITLE19=Patsy Cline - Walkin' After Midnight
EXTD=
EXTT0=
EXTT1=
EXTT2=
EXTT3=
EXTT4=
EXTT5=
EXTT6=
EXTT7=
EXTT8=
EXTT9=
EXTT10=
EXTT11=
EXTT12=
EXTT13=
EXTT14=
EXTT15=
EXTT16=
EXTT17=
EXTT18=
EXTT19=
PLAYORDER=
